# xmcd CD database file
#
# Track frame offsets:
#	150
#	16945
#	31799
#	50617
#	67207
#	87575
#	106898
#	131288
#	150221
#	169464
#
# Disc length: 2585 seconds
#
# Revision: 0
# Processed by: cddbd v1.5.1PL2 Copyright (c) Steve Scherf et al.
# Submitted via: CDex 1.51
#
DISCID=7a0a170a
DTITLE=The Mods - YUM-YUM GIMME SOME
DYEAR=1987
DGENRE=Rock
TTITLE0=ジャマをするな
TTITLE1=Too Hot
TTITLE2=Harlem Queen
TTITLE3=Hard Luck
TTITLE4=Bunny Girl
TTITLE5=泥棒列車
TTITLE6=Kick It Out
TTITLE7=Everything's Gonna Be Alright
TTITLE8=Instant Happiness
TTITLE9=Strange Day
EXTD=YEAR: 1987
EXTT0=
EXTT1=
EXTT2=
EXTT3=
EXTT4=
EXTT5=
EXTT6=
EXTT7=
EXTT8=
EXTT9=
PLAYORDER=
